<?xml version="1.0" encoding="UTF-8"?>
<!DOCTYPE svg PUBLIC "-//W3C//DTD SVG 1.1//EN" "http://www.w3.org/Graphics/SVG/1.1/DTD/svg11.dtd">
<!-- Creator: CorelDRAW X7 -->
<svg xmlns="http://www.w3.org/2000/svg" xml:space="preserve" width="210mm" height="297mm" version="1.1" style="shape-rendering:geometricPrecision; text-rendering:geometricPrecision; image-rendering:optimizeQuality; fill-rule:evenodd; clip-rule:evenodd"
viewBox="0 0 21000 29700"
 xmlns:xlink="http://www.w3.org/1999/xlink">
 <defs>
  <style type="text/css">
   <![CDATA[
    .str0 {stroke:#332C2B;stroke-width:20}
    .fil4 {fill:none}
    .fil2 {fill:#DCDDDD}
    .fil5 {fill:#B6B6B7}
    .fil6 {fill:#8B8B8C}
    .fil9 {fill:#757475}
    .fil3 {fill:#332C2B}
    .fil7 {fill:#5F5C50}
    .fil8 {fill:#FFF000}
    .fil0 {fill:#F4B3B3}
    .fil1 {fill:#E62129}
    .fil10 {fill:#332C2B;fill-rule:nonzero}
   ]]>
  </style>
   <clipPath id="id0">
    <path d="M6984 11809c1875,0 3396,680 3396,1520 0,840 -1521,1521 -3396,1521 -1876,0 -3397,-681 -3397,-1521 0,-840 1521,-1520 3397,-1520z"/>
   </clipPath>
    <clipPath id="id1">
     <path d="M5577 11945c-199,399 276,903 -337,1169 -687,298 933,760 1079,860 147,99 1958,-629 1463,-1091 -446,-418 -1240,65 -1441,-1047 -267,23 -523,60 -764,109z"/>
    </clipPath>
    <clipPath id="id2">
     <path d="M6984 11809c1875,0 3396,680 3396,1520 0,840 -1521,1521 -3396,1521 -1876,0 -3397,-681 -3397,-1521 0,-840 1521,-1520 3397,-1520z"/>
    </clipPath>
   <clipPath id="id3">
    <path d="M14031 11732c1876,0 3397,681 3397,1521 0,840 -1521,1521 -3397,1521 -1875,0 -3396,-681 -3396,-1521 0,-840 1521,-1521 3396,-1521z"/>
   </clipPath>
    <clipPath id="id4">
     <path d="M950 15926l18953 0 0 2415 -18953 0 0 -2415z"/>
    </clipPath>
   <clipPath id="id5" style="clip-rule:nonzero">
    <path d="M2929 15861l-180 354 -30 -18c0,-7 1,-13 1,-17 0,-25 -22,-52 -64,-81 -131,-91 -284,-136 -460,-136 -78,0 -147,9 -206,28 -43,15 -78,37 -105,67 -27,29 -41,61 -41,96 0,56 35,95 103,115 35,11 110,22 226,34l173 17c103,11 186,26 249,45 64,20 120,46 169,81 50,36 89,83 118,142 29,59 44,121 44,188 0,106 -34,200 -102,282 -62,75 -158,131 -287,166 -97,28 -201,41 -312,41 -198,0 -394,-48 -588,-143 -41,-19 -66,-28 -74,-28 -9,0 -24,8 -45,24l-32 -16 163 -369 32 16c0,6 0,11 0,14 0,33 16,64 47,91 48,43 122,80 221,110 100,31 195,47 284,47 98,0 181,-17 250,-50 38,-18 69,-43 91,-73 23,-31 34,-63 34,-96 0,-50 -26,-85 -80,-107 -38,-14 -113,-28 -227,-40l-170 -18c-113,-12 -194,-23 -241,-34 -47,-10 -94,-27 -141,-51 -66,-33 -119,-83 -157,-149 -34,-60 -52,-128 -52,-205 0,-127 44,-232 131,-315 115,-110 287,-165 516,-165 96,0 186,10 268,30 83,19 187,55 311,107 42,17 68,25 78,25 15,0 33,-8 54,-25l31 16z"/>
   </clipPath>
   <clipPath id="id6" style="clip-rule:nonzero">
    <path d="M3492 16118l0 1006c0,23 5,40 15,53 10,12 28,22 55,30l0 31 -435 0 0 -31c25,-7 43,-17 54,-29 10,-12 16,-30 16,-53l0 -1006c0,-23 -6,-40 -16,-52 -10,-12 -28,-22 -54,-30l0 -31 435 0 0 31c-27,7 -45,17 -55,29 -10,13 -15,30 -15,52z"/>
   </clipPath>
   <clipPath id="id7" style="clip-rule:nonzero">
    <path d="M3849 17125l0 -1006c0,-23 -5,-40 -15,-52 -11,-12 -29,-22 -55,-30l0 -31 723 0c150,0 268,18 355,56 122,53 209,140 263,262 37,85 56,184 56,298 0,211 -63,370 -188,479 -56,48 -123,83 -200,105 -76,21 -172,32 -286,32l-723 0 0 -31c26,-7 44,-17 54,-29 11,-12 16,-30 16,-53zm295 -110l315 0c145,0 249,-33 315,-99 68,-69 102,-167 102,-294 0,-127 -34,-225 -102,-294 -34,-35 -76,-60 -126,-76 -50,-15 -113,-23 -189,-23l-315 0 0 786z"/>
   </clipPath>
   <clipPath id="id8" style="clip-rule:nonzero">
    <path d="M5730 16118l0 1006c0,23 5,40 15,53 10,12 28,22 54,30l0 31 -434 0 0 -31c25,-7 43,-17 54,-29 10,-12 15,-30 15,-53l0 -1006c0,-23 -5,-40 -15,-52 -10,-12 -28,-22 -54,-30l0 -31 434 0 0 31c-26,7 -44,17 -54,29 -10,13 -15,30 -15,52z"/>
   </clipPath>
   <clipPath id="id9" style="clip-rule:nonzero">
    <path d="M6125 16320c60,-39 103,-78 130,-115 26,-38 45,-87 56,-147 -35,9 -60,13 -77,13 -49,0 -87,-17 -117,-51 -29,-33 -44,-77 -44,-131 0,-55 15,-98 45,-130 29,-32 69,-48 118,-48 59,0 107,23 143,70 37,48 55,110 55,187 0,161 -86,302 -257,423l-52 -71z"/>
   </clipPath>
   <clipPath id="id10" style="clip-rule:nonzero">
    <path d="M7893 16117l-149 287 -26 -14c0,-24 -8,-43 -23,-57 -42,-38 -104,-69 -186,-93 -81,-24 -164,-36 -247,-36 -71,0 -135,10 -190,30 -79,28 -119,70 -119,124 0,36 19,61 57,77 39,15 112,27 222,36l174 13c152,11 267,41 346,88 44,26 81,62 109,105 36,55 54,117 54,186 0,126 -56,225 -169,298 -108,69 -254,104 -438,104 -186,0 -365,-39 -538,-117 -12,-6 -22,-8 -30,-8 -15,0 -28,9 -41,26l-27 -11 126 -301 28 11c0,4 0,7 0,9 0,19 7,35 22,48 37,33 100,60 190,84 90,24 180,36 268,36 77,0 147,-10 209,-31 76,-25 114,-65 114,-121 0,-45 -26,-76 -79,-94 -35,-12 -99,-22 -191,-30l-172 -14c-94,-7 -165,-17 -214,-29 -49,-11 -92,-29 -129,-51 -47,-30 -84,-70 -110,-120 -27,-51 -40,-107 -40,-167 0,-135 58,-238 174,-309 106,-65 237,-97 393,-97 84,0 163,9 236,28 73,19 160,52 261,99 30,13 52,21 63,21 12,0 27,-8 46,-25l26 15z"/>
   </clipPath>
   <clipPath id="id11" style="clip-rule:nonzero">
    <path d="M9055 16209l0 913c0,23 5,40 15,52 10,11 28,21 55,28l0 36 -440 0 0 -36c26,-7 45,-17 55,-28 10,-12 15,-29 15,-52l0 -1271c0,-23 -5,-39 -15,-51 -10,-12 -29,-22 -55,-29l0 -36 510 0 0 36c-32,8 -47,25 -47,51 0,18 10,37 30,58l832 861 0 -890c0,-23 -5,-39 -15,-51 -11,-12 -29,-22 -55,-29l0 -36 440 0 0 36c-27,7 -45,17 -55,29 -10,12 -15,28 -15,51l0 1271c0,23 5,40 15,52 10,11 28,21 55,28l0 36 -473 0 0 -36c31,-7 46,-22 46,-47 0,-15 -18,-40 -53,-77l-845 -869z"/>
   </clipPath>
   <clipPath id="id12" style="clip-rule:nonzero">
    <path d="M11571 16929l-568 0 -64 134c-16,33 -23,58 -23,76 0,36 23,58 70,68l0 31 -452 0 0 -31c27,-5 48,-13 61,-26 14,-12 30,-37 49,-73l449 -910c17,-35 26,-65 26,-91 0,-30 -21,-53 -62,-70l0 -31 479 0 0 31c-40,16 -61,41 -61,75 0,24 9,54 28,89l466 882c26,48 46,80 61,94 15,14 37,24 67,30l0 31 -502 0 0 -31c48,-8 72,-31 72,-67 0,-23 -10,-51 -28,-85l-68 -126zm-90 -173l-201 -396 -192 396 393 0z"/>
   </clipPath>
   <clipPath id="id13" style="clip-rule:nonzero">
    <path d="M13386 16117l-149 287 -26 -14c0,-24 -8,-43 -24,-57 -41,-38 -103,-69 -185,-93 -81,-24 -164,-36 -248,-36 -71,0 -134,10 -189,30 -79,28 -119,70 -119,124 0,36 19,61 57,77 38,15 112,27 222,36l174 13c151,11 267,41 346,88 44,26 80,62 109,105 36,55 54,117 54,186 0,126 -56,225 -169,298 -108,69 -254,104 -438,104 -186,0 -365,-39 -539,-117 -11,-6 -21,-8 -29,-8 -15,0 -28,9 -41,26l-28 -11 127 -301 27 11c0,4 0,7 0,9 0,19 8,35 23,48 36,33 100,60 190,84 90,24 179,36 267,36 78,0 148,-10 209,-31 77,-25 115,-65 115,-121 0,-45 -26,-76 -79,-94 -36,-12 -99,-22 -191,-30l-173 -14c-93,-7 -164,-17 -213,-29 -50,-11 -92,-29 -129,-51 -47,-30 -84,-70 -110,-120 -27,-51 -40,-107 -40,-167 0,-135 58,-238 174,-309 106,-65 236,-97 392,-97 85,0 164,9 236,28 74,19 161,52 262,99 30,13 51,21 63,21 12,0 27,-8 45,-25l27 15z"/>
   </clipPath>
   <clipPath id="id14" style="clip-rule:nonzero">
    <path d="M14698 16763l-280 0c-23,0 -41,5 -53,15 -12,10 -22,28 -29,55l-30 0 0 -327 30 0c7,26 17,44 29,54 12,10 30,16 53,16l587 0 0 31c-26,8 -44,18 -54,32 -11,14 -16,34 -16,60l0 260c0,23 5,41 16,53 10,13 28,23 54,30l0 25c-238,132 -474,198 -711,198 -204,0 -368,-48 -495,-144 -68,-53 -123,-118 -165,-196 -49,-93 -73,-192 -73,-296 0,-146 44,-275 134,-388 139,-175 345,-262 617,-262 120,0 256,26 409,80 61,21 97,31 107,31 12,0 27,-6 44,-18l27 15 -145 310 -27 -13c0,-3 0,-5 0,-7 0,-27 -27,-55 -81,-84 -101,-53 -209,-80 -324,-80 -133,0 -242,36 -327,109 -90,76 -135,179 -135,308 0,121 41,217 122,290 84,74 201,111 352,111 144,0 265,-27 364,-81l0 -187z"/>
   </clipPath>
   <clipPath id="id15" style="clip-rule:nonzero">
    <path d="M15903 15979c195,0 358,50 489,149 156,121 234,288 234,504 0,202 -78,363 -234,483 -129,100 -291,150 -487,150 -196,0 -358,-50 -488,-150 -156,-120 -235,-285 -235,-493 0,-211 79,-375 235,-494 130,-97 292,-147 486,-149zm1 234c-128,0 -231,41 -311,122 -74,76 -111,172 -111,287 0,114 37,209 111,286 80,82 184,123 312,123 127,0 230,-41 310,-123 74,-76 112,-169 112,-280 0,-121 -38,-219 -112,-293 -80,-80 -184,-121 -311,-122z"/>
   </clipPath>
   <clipPath id="id16" style="clip-rule:nonzero">
    <path d="M17180 16731l0 393c0,23 5,40 16,53 10,12 28,22 54,30l0 31 -435 0 0 -31c26,-7 44,-17 54,-29 11,-12 16,-30 16,-53l0 -1006c0,-23 -5,-40 -15,-52 -11,-12 -29,-22 -55,-30l0 -31 809 0c104,0 184,5 240,15 55,11 104,30 147,58 89,58 133,153 133,284 0,99 -27,177 -82,233 -54,56 -143,97 -265,122l235 325c43,60 77,101 102,122 26,22 55,36 87,42l0 31 -519 0 0 -31c38,-11 57,-27 57,-50 0,-16 -11,-41 -35,-73l-248 -353 -296 0zm0 -223l446 0c68,0 118,-7 150,-22 46,-20 69,-59 69,-118 0,-52 -16,-88 -48,-108 -32,-21 -89,-31 -171,-31l-446 0 0 279z"/>
   </clipPath>
   <clipPath id="id17" style="clip-rule:nonzero">
    <path d="M18731 16713l0 302 780 0c23,0 40,-5 52,-15 12,-10 22,-28 29,-55l32 0 0 363 -32 0c-7,-26 -16,-44 -28,-54 -13,-11 -30,-16 -53,-16l-1145 0 0 -31c26,-7 44,-17 54,-29 11,-12 16,-30 16,-53l0 -1006c0,-23 -5,-40 -15,-52 -10,-12 -28,-22 -55,-30l0 -31 1112 0c24,0 41,-6 53,-16 13,-10 22,-28 30,-54l29 0 0 363 -29 0c-8,-27 -17,-45 -29,-55 -13,-10 -30,-15 -54,-15l-747 0 0 270 463 0c23,0 41,-5 53,-15 12,-10 22,-28 30,-55l29 0 0 354 -29 0c-7,-26 -17,-44 -29,-54 -13,-11 -30,-16 -54,-16l-463 0z"/>
   </clipPath>
 </defs>
 <g id="Layer_x0020_1">
  <metadata id="CorelCorpID_0Corel-Layer"/>
  <path class="fil0" d="M6984 11809c1875,0 3396,680 3396,1520 0,840 -1521,1521 -3396,1521 -1876,0 -3397,-681 -3397,-1521 0,-840 1521,-1520 3397,-1520z"/>
  <g style="clip-path:url(#id0)">
   <g id="_2892767193584">
    <path id="1" class="fil1" d="M6297 11412c0,0 -191,-17 -619,396 -427,413 248,1009 -438,1306 -687,298 933,760 1079,860 147,99 1958,-629 1463,-1091 -495,-463 -1418,181 -1485,-1471z"/>
   </g>
   <g style="clip-path:url(#id1)">
    <g>
     <ellipse class="fil2" cx="6730" cy="13064" rx="834" ry="868"/>
     <ellipse class="fil3 str0" cx="6699" cy="13194" rx="445" ry="441"/>
     <path class="fil1" d="M6495 12750c0,0 129,369 -142,449 -272,80 360,370 360,370 0,0 20,-330 238,-190 217,140 34,-499 -456,-629z"/>
    </g>
   </g>
   <g style="clip-path:url(#id2)">
    <path class="fil4" d="M6297 11412c0,0 -191,-17 -619,396 -427,413 248,1009 -438,1306 -687,298 933,760 1079,860 147,99 1958,-629 1463,-1091 -495,-463 -1418,181 -1485,-1471z"/>
   </g>
  </g>
  <path class="fil4" d="M6984 11809c1875,0 3396,680 3396,1520 0,840 -1521,1521 -3396,1521 -1876,0 -3397,-681 -3397,-1521 0,-840 1521,-1520 3397,-1520z"/>
  <path class="fil5" d="M14031 11732c1876,0 3397,681 3397,1521 0,840 -1521,1521 -3397,1521 -1875,0 -3396,-681 -3396,-1521 0,-840 1521,-1521 3396,-1521z"/>
  <g style="clip-path:url(#id3)">
   <g id="_2892767190672">
    <ellipse class="fil2" cx="13942" cy="13351" rx="1520" ry="1074"/>
    <ellipse class="fil6" cx="13885" cy="13512" rx="810" ry="545"/>
   </g>
  </g>
  <path class="fil4" d="M14031 11732c1876,0 3397,681 3397,1521 0,840 -1521,1521 -3397,1521 -1875,0 -3396,-681 -3396,-1521 0,-840 1521,-1521 3396,-1521z"/>
  <g id="_2892767189680">
   <path class="fil7" d="M2574 6755c-223,-466 -628,-1418 -74,-1815 192,-138 444,-162 673,-145 241,18 530,89 757,179l81 32 2628 8464 -304 129 -3759 -6840 -2 -4z"/>
  </g>
  <path class="fil8" d="M2739 6676l3677 6690 -2554 -8222c0,0 -2298,-920 -1123,1532z"/>
  <path class="fil9" d="M4708 10259l-3445 2276 3607 -1982c0,0 -185,-279 -162,-294z"/>
  <polygon class="fil9" points="5370,9999 7902,9752 9588,11105 9741,11872 9026,11131 7749,10212 5473,10331 "/>
  <polygon class="fil6" points="10507,11386 20900,8680 15818,10544 "/>
  <g id="_2892767189168">
   <g style="clip-path:url(#id4)">
    <image x="950" y="15926" width="18953" height="2416" xlink:href="sidisnasigoreng_Images\sidisnasigoreng_ImgID1.png"/>
   </g>
  </g>
  <g id="_2892767189360">
   <path class="fil1" d="M12107 17155l155 -369 109 43 0 36c0,3 0,6 0,9 0,4 2,7 4,9 40,35 118,59 169,73 83,22 168,34 254,34 65,0 131,-8 193,-29 33,-11 78,-30 78,-71 0,-26 -20,-36 -43,-44 -50,-17 -126,-23 -178,-27l-173 -14c-72,-6 -151,-14 -222,-31 -50,-12 -100,-30 -144,-58 -56,-34 -99,-82 -129,-140 -31,-59 -46,-124 -46,-191 0,-154 68,-274 200,-354 126,-78 273,-105 419,-105 84,0 168,9 249,30 93,24 185,62 271,102 9,4 27,12 38,15 5,-3 10,-7 13,-10l28 -25 104 58 -197 380 -101 -55 0 -31c0,-7 -1,-14 -6,-18 -43,-39 -109,-65 -165,-81 -76,-23 -154,-35 -233,-35 -57,0 -117,7 -171,27 -32,12 -84,34 -84,75 0,16 9,22 23,28 53,20 150,28 207,32l173 13c122,9 264,32 370,95 51,31 93,73 126,123 42,65 63,137 63,214 0,149 -70,262 -194,342 -136,88 -307,113 -466,113 -195,0 -383,-42 -560,-123 -1,0 -3,-1 -4,-1 -1,1 -2,2 -3,3l-24 34 -60 -25 0 85 -608 0 0 -129 44 -7c10,-2 28,-3 28,-15 0,-18 -13,-45 -21,-60l-53 -98 -504 0 -50 104c-5,12 -18,40 -18,53 0,11 21,14 29,16l42 9 0 127 -558 0 0 -129 44 -7c9,-2 28,-6 35,-12 13,-12 29,-44 36,-58l450 -911c10,-19 20,-45 20,-67 0,-9 -23,-19 -29,-21l-33 -14 0 -119 584 0 0 120 -33 13c-11,5 -27,11 -27,26 0,20 12,47 21,64l467 883c11,20 34,64 50,80 10,8 29,14 41,16zm-10541 -6c-6,3 -12,8 -16,11l-26 20 -106 -54 205 -463 111 53 0 33c0,5 0,9 0,14 0,21 14,39 29,52 53,47 135,79 202,99 86,27 177,44 268,44 77,0 157,-11 227,-44 28,-14 53,-32 72,-58 14,-19 24,-40 24,-64 0,-32 -19,-47 -47,-58 -55,-21 -155,-31 -213,-37l-170 -18c-80,-8 -168,-17 -247,-34 -53,-12 -104,-32 -153,-56 -77,-38 -137,-95 -179,-170 -41,-71 -59,-149 -59,-231 0,-138 47,-258 147,-353 147,-140 356,-179 552,-179 94,0 189,9 280,30 108,26 217,68 318,110 15,6 43,18 60,21 5,-2 16,-10 19,-13l28 -22 107 57 -228 449 -108 -62 3 -34c1,-4 1,-8 1,-11 -3,-11 -32,-32 -41,-39 -129,-88 -274,-127 -430,-127 -64,0 -129,7 -189,26 -32,11 -61,27 -84,52 -15,17 -26,37 -26,61 0,39 30,55 65,65 23,7 51,11 75,15 47,6 95,12 142,16l172 18c86,9 177,22 260,47 65,20 128,48 184,88 58,42 103,97 134,162 33,66 49,137 49,211 0,119 -38,224 -114,316 -79,95 -196,150 -313,183 -107,29 -216,43 -326,43 -214,0 -419,-54 -610,-148 -13,-6 -34,-16 -49,-21zm1978 -1031l0 1006c0,4 1,16 4,19 4,5 22,11 29,13l37 11 0 124 -540 0 0 -125 39 -10c6,-2 24,-7 28,-12 3,-3 3,-15 3,-19l0 -1006c0,-4 0,-15 -2,-18 -5,-5 -23,-11 -30,-13l-38 -12 0 -123 540 0 0 124 -39 11c-6,2 -23,7 -27,12 -3,3 -4,14 -4,18zm252 1007l0 -1006c0,-4 0,-15 -2,-18 -5,-5 -23,-11 -30,-13l-37 -12 0 -123 775 0c122,0 263,11 376,60 134,58 231,156 290,290 44,100 61,210 61,319 0,197 -53,386 -207,518 -64,56 -138,94 -220,116 -96,27 -201,35 -300,35l-775 0 0 -125 39 -10c6,-2 23,-7 27,-12 3,-3 3,-15 3,-19zm1986 -1007l0 1006c0,4 1,16 3,19 5,5 23,11 29,13l38 11 0 124 -540 0 0 -125 39 -10c6,-2 23,-7 28,-12 2,-3 3,-15 3,-19l0 -1006c0,-4 -1,-15 -3,-18 -5,-5 -23,-11 -30,-13l-37 -12 0 -123 540 0 0 124 -39 11c-6,2 -23,7 -28,12 -2,3 -3,14 -3,18zm457 5c-2,1 -4,1 -5,1 -62,0 -116,-22 -156,-69 -41,-47 -57,-105 -57,-166 0,-62 16,-120 58,-166 42,-45 96,-65 157,-65 75,0 139,31 185,92 48,63 65,140 65,218 0,202 -120,353 -279,466l-42 30 -115 -158 46 -30c41,-27 88,-62 116,-102 11,-15 20,-32 27,-51zm505 1071c-1,1 -2,2 -2,3l-25 34 -114 -47 167 -398 108 43 0 36c0,3 0,6 0,9 0,4 2,7 4,9 41,35 119,59 170,73 83,22 168,34 254,34 64,0 130,-8 192,-29 33,-11 79,-30 79,-71 0,-26 -21,-36 -44,-44 -50,-17 -125,-23 -178,-27l-173 -14c-72,-6 -151,-14 -221,-31 -51,-12 -100,-30 -145,-58 -55,-34 -98,-82 -129,-140 -31,-59 -45,-124 -45,-191 0,-154 68,-274 199,-354 126,-78 273,-105 420,-105 83,0 167,9 249,30 92,24 184,62 271,102 8,4 26,12 38,15 4,-3 10,-7 12,-10l28 -25 104 58 -197 380 -101 -55 0 -31c0,-7 0,-14 -6,-18 -43,-39 -109,-65 -164,-81 -76,-23 -154,-35 -233,-35 -58,0 -117,7 -172,27 -32,12 -84,34 -84,75 0,16 10,22 24,28 52,20 150,28 206,32l174 13c121,9 264,32 369,95 52,31 94,73 126,123 43,65 63,137 63,214 0,149 -70,262 -194,342 -136,88 -307,113 -466,113 -195,0 -382,-42 -560,-123 -1,0 -2,-1 -4,-1zm2363 -855l0 783c0,3 1,14 3,17 5,5 22,11 29,13l38 10 0 129 -544 0 0 -129 38 -10c6,-2 24,-8 29,-13 2,-3 3,-14 3,-17l0 -1271c0,-4 -1,-14 -3,-17 -5,-5 -22,-10 -29,-12l-38 -10 0 -129 614 0 0 129 -39 10c-2,1 -4,1 -7,2 3,7 12,16 15,20l741 767 0 -760c0,-4 0,-14 -2,-17 -5,-5 -22,-10 -29,-12l-38 -10 0 -129 544 0 0 129 -39 10c-6,2 -24,7 -28,12 -2,3 -3,13 -3,17l0 1271c0,3 1,14 3,17 5,5 22,11 29,13l38 10 0 129 -577 0 0 -131 39 -9c-9,-13 -25,-30 -32,-37l-755 -775zm5539 476l-228 0c-4,0 -16,1 -19,3 -5,5 -11,23 -13,29l-11 38 -121 0 0 -432 121 0 11 38c2,6 8,25 13,29 3,3 15,3 19,3l639 0 0 124 -37 11c-7,2 -23,7 -27,13 -5,6 -6,21 -6,28l0 260c0,5 1,16 4,20 4,5 22,11 29,13l37 11 0 95 -27 15c-227,126 -474,205 -736,205 -187,0 -375,-39 -527,-155 -75,-58 -134,-130 -179,-213 -54,-100 -80,-208 -80,-321 0,-157 48,-298 145,-421 165,-206 401,-282 659,-282 144,0 291,36 427,83 22,8 64,24 89,28 4,-1 10,-6 13,-8l27 -19 99 54 -189 404 -103 -52 0 -32c0,-2 0,-3 0,-5 -7,-13 -43,-33 -54,-39 -93,-50 -193,-75 -299,-75 -108,0 -210,26 -293,97 -83,70 -116,161 -116,268 0,99 29,184 104,250 86,77 205,98 317,98 106,0 215,-15 312,-60l0 -103zm1256 -889c189,-1 370,44 522,161 177,136 255,324 255,545 0,215 -84,393 -255,525 -151,116 -331,161 -519,161 -188,0 -369,-45 -520,-161 -174,-134 -256,-316 -256,-535 0,-219 81,-403 257,-536 151,-113 329,-159 516,-160zm1331 858l0 340c0,4 0,16 3,19 5,5 23,11 29,13l38 11 0 124 -540 0 0 -125 39 -10c6,-2 23,-7 27,-12 3,-3 3,-15 3,-19l0 -1006c0,-4 0,-15 -2,-18 -5,-5 -23,-11 -30,-13l-37 -12 0 -123 861 0c80,0 171,2 250,17 59,11 115,32 166,65 115,75 157,195 157,328 0,100 -26,197 -97,270 -56,58 -135,94 -215,117l189 262c26,35 62,85 94,113 19,16 39,26 63,30l43 8 0 128 -625 0 0 -125 39 -10c4,-1 10,-3 16,-5 -6,-13 -18,-30 -23,-37l-232 -330 -216 0zm1551 -18l0 197 727 0c4,0 15,-1 18,-3 5,-5 11,-22 12,-28l11 -39 124 0 0 468 -124 0 -11 -40c-1,-6 -7,-23 -11,-27 -4,-3 -15,-3 -19,-3l-1197 0 0 -125 39 -10c6,-2 23,-7 27,-12 3,-3 4,-15 4,-19l0 -1006c0,-4 -1,-15 -3,-18 -5,-5 -23,-11 -30,-13l-37 -12 0 -123 1164 0c4,0 16,0 20,-3 5,-4 10,-22 12,-28l10 -39 122 0 0 468 -122 0 -10 -39c-2,-6 -7,-23 -12,-28 -3,-2 -16,-3 -20,-3l-694 0 0 166 410 0c4,0 15,-1 19,-3 5,-5 11,-23 13,-30l12 -37 120 0 0 459 -121 0 -11 -39c-2,-7 -7,-24 -12,-28 -3,-3 -15,-3 -20,-3l-410 0zm-14587 197l262 0c93,0 209,-15 277,-84 68,-68 88,-164 88,-257 0,-94 -20,-189 -88,-257 -29,-30 -64,-50 -103,-63 -54,-17 -117,-21 -174,-21l-262 0 0 682zm7199 -260l-115 -225 -109 225 224 0zm4507 -438c-105,0 -198,31 -273,107 -67,69 -96,154 -96,250 0,96 29,180 97,249 74,77 168,107 274,107 106,0 198,-31 273,-107 66,-68 96,-149 96,-243 0,-98 -26,-186 -96,-256 -75,-75 -169,-106 -275,-107zm1330 191l393 0c37,0 95,-3 129,-18l1 0c30,-13 36,-39 36,-70 0,-22 -3,-51 -24,-64 -31,-20 -106,-23 -142,-23l-393 0 0 175z"/>
  </g>
  <path class="fil10" d="M2929 15861l-180 354 -30 -18c0,-7 1,-13 1,-17 0,-25 -22,-52 -64,-81 -131,-91 -284,-136 -460,-136 -78,0 -147,9 -206,28 -43,15 -78,37 -105,67 -27,29 -41,61 -41,96 0,56 35,95 103,115 35,11 110,22 226,34l173 17c103,11 186,26 249,45 64,20 120,46 169,81 50,36 89,83 118,142 29,59 44,121 44,188 0,106 -34,200 -102,282 -62,75 -158,131 -287,166 -97,28 -201,41 -312,41 -198,0 -394,-48 -588,-143 -41,-19 -66,-28 -74,-28 -9,0 -24,8 -45,24l-32 -16 163 -369 32 16c0,6 0,11 0,14 0,33 16,64 47,91 48,43 122,80 221,110 100,31 195,47 284,47 98,0 181,-17 250,-50 38,-18 69,-43 91,-73 23,-31 34,-63 34,-96 0,-50 -26,-85 -80,-107 -38,-14 -113,-28 -227,-40l-170 -18c-113,-12 -194,-23 -241,-34 -47,-10 -94,-27 -141,-51 -66,-33 -119,-83 -157,-149 -34,-60 -52,-128 -52,-205 0,-127 44,-232 131,-315 115,-110 287,-165 516,-165 96,0 186,10 268,30 83,19 187,55 311,107 42,17 68,25 78,25 15,0 33,-8 54,-25l31 16zm563 257l0 1006c0,23 5,40 15,53 10,12 28,22 55,30l0 31 -435 0 0 -31c25,-7 43,-17 54,-29 10,-12 16,-30 16,-53l0 -1006c0,-23 -6,-40 -16,-52 -10,-12 -28,-22 -54,-30l0 -31 435 0 0 31c-27,7 -45,17 -55,29 -10,13 -15,30 -15,52zm357 1007l0 -1006c0,-23 -5,-40 -15,-52 -11,-12 -29,-22 -55,-30l0 -31 723 0c150,0 268,18 355,56 122,53 209,140 263,262 37,85 56,184 56,298 0,211 -63,370 -188,479 -56,48 -123,83 -200,105 -76,21 -172,32 -286,32l-723 0 0 -31c26,-7 44,-17 54,-29 11,-12 16,-30 16,-53zm295 -110l315 0c145,0 249,-33 315,-99 68,-69 102,-167 102,-294 0,-127 -34,-225 -102,-294 -34,-35 -76,-60 -126,-76 -50,-15 -113,-23 -189,-23l-315 0 0 786zm1586 -897l0 1006c0,23 5,40 15,53 10,12 28,22 54,30l0 31 -434 0 0 -31c25,-7 43,-17 54,-29 10,-12 15,-30 15,-53l0 -1006c0,-23 -5,-40 -15,-52 -10,-12 -28,-22 -54,-30l0 -31 434 0 0 31c-26,7 -44,17 -54,29 -10,13 -15,30 -15,52zm395 202c60,-39 103,-78 130,-115 26,-38 45,-87 56,-147 -35,9 -60,13 -77,13 -49,0 -87,-17 -117,-51 -29,-33 -44,-77 -44,-131 0,-55 15,-98 45,-130 29,-32 69,-48 118,-48 59,0 107,23 143,70 37,48 55,110 55,187 0,161 -86,302 -257,423l-52 -71zm1768 -203l-149 287 -26 -14c0,-24 -8,-43 -23,-57 -42,-38 -104,-69 -186,-93 -81,-24 -164,-36 -247,-36 -71,0 -135,10 -190,30 -79,28 -119,70 -119,124 0,36 19,61 57,77 39,15 112,27 222,36l174 13c152,11 267,41 346,88 44,26 81,62 109,105 36,55 54,117 54,186 0,126 -56,225 -169,298 -108,69 -254,104 -438,104 -186,0 -365,-39 -538,-117 -12,-6 -22,-8 -30,-8 -15,0 -28,9 -41,26l-27 -11 126 -301 28 11c0,4 0,7 0,9 0,19 7,35 22,48 37,33 100,60 190,84 90,24 180,36 268,36 77,0 147,-10 209,-31 76,-25 114,-65 114,-121 0,-45 -26,-76 -79,-94 -35,-12 -99,-22 -191,-30l-172 -14c-94,-7 -165,-17 -214,-29 -49,-11 -92,-29 -129,-51 -47,-30 -84,-70 -110,-120 -27,-51 -40,-107 -40,-167 0,-135 58,-238 174,-309 106,-65 237,-97 393,-97 84,0 163,9 236,28 73,19 160,52 261,99 30,13 52,21 63,21 12,0 27,-8 46,-25l26 15zm1162 92l0 913c0,23 5,40 15,52 10,11 28,21 55,28l0 36 -440 0 0 -36c26,-7 45,-17 55,-28 10,-12 15,-29 15,-52l0 -1271c0,-23 -5,-39 -15,-51 -10,-12 -29,-22 -55,-29l0 -36 510 0 0 36c-32,8 -47,25 -47,51 0,18 10,37 30,58l832 861 0 -890c0,-23 -5,-39 -15,-51 -11,-12 -29,-22 -55,-29l0 -36 440 0 0 36c-27,7 -45,17 -55,29 -10,12 -15,28 -15,51l0 1271c0,23 5,40 15,52 10,11 28,21 55,28l0 36 -473 0 0 -36c31,-7 46,-22 46,-47 0,-15 -18,-40 -53,-77l-845 -869zm2516 720l-568 0 -64 134c-16,33 -23,58 -23,76 0,36 23,58 70,68l0 31 -452 0 0 -31c27,-5 48,-13 61,-26 14,-12 30,-37 49,-73l449 -910c17,-35 26,-65 26,-91 0,-30 -21,-53 -62,-70l0 -31 479 0 0 31c-40,16 -61,41 -61,75 0,24 9,54 28,89l466 882c26,48 46,80 61,94 15,14 37,24 67,30l0 31 -502 0 0 -31c48,-8 72,-31 72,-67 0,-23 -10,-51 -28,-85l-68 -126zm-90 -173l-201 -396 -192 396 393 0zm1905 -639l-149 287 -26 -14c0,-24 -8,-43 -24,-57 -41,-38 -103,-69 -185,-93 -81,-24 -164,-36 -248,-36 -71,0 -134,10 -189,30 -79,28 -119,70 -119,124 0,36 19,61 57,77 38,15 112,27 222,36l174 13c151,11 267,41 346,88 44,26 80,62 109,105 36,55 54,117 54,186 0,126 -56,225 -169,298 -108,69 -254,104 -438,104 -186,0 -365,-39 -539,-117 -11,-6 -21,-8 -29,-8 -15,0 -28,9 -41,26l-28 -11 127 -301 27 11c0,4 0,7 0,9 0,19 8,35 23,48 36,33 100,60 190,84 90,24 179,36 267,36 78,0 148,-10 209,-31 77,-25 115,-65 115,-121 0,-45 -26,-76 -79,-94 -36,-12 -99,-22 -191,-30l-173 -14c-93,-7 -164,-17 -213,-29 -50,-11 -92,-29 -129,-51 -47,-30 -84,-70 -110,-120 -27,-51 -40,-107 -40,-167 0,-135 58,-238 174,-309 106,-65 236,-97 392,-97 85,0 164,9 236,28 74,19 161,52 262,99 30,13 51,21 63,21 12,0 27,-8 45,-25l27 15zm1312 646l-280 0c-23,0 -41,5 -53,15 -12,10 -22,28 -29,55l-30 0 0 -327 30 0c7,26 17,44 29,54 12,10 30,16 53,16l587 0 0 31c-26,8 -44,18 -54,32 -11,14 -16,34 -16,60l0 260c0,23 5,41 16,53 10,13 28,23 54,30l0 25c-238,132 -474,198 -711,198 -204,0 -368,-48 -495,-144 -68,-53 -123,-118 -165,-196 -49,-93 -73,-192 -73,-296 0,-146 44,-275 134,-388 139,-175 345,-262 617,-262 120,0 256,26 409,80 61,21 97,31 107,31 12,0 27,-6 44,-18l27 15 -145 310 -27 -13c0,-3 0,-5 0,-7 0,-27 -27,-55 -81,-84 -101,-53 -209,-80 -324,-80 -133,0 -242,36 -327,109 -90,76 -135,179 -135,308 0,121 41,217 122,290 84,74 201,111 352,111 144,0 265,-27 364,-81l0 -187zm1205 -784c195,0 358,50 489,149 156,121 234,288 234,504 0,202 -78,363 -234,483 -129,100 -291,150 -487,150 -196,0 -358,-50 -488,-150 -156,-120 -235,-285 -235,-493 0,-211 79,-375 235,-494 130,-97 292,-147 486,-149zm1 234c-128,0 -231,41 -311,122 -74,76 -111,172 -111,287 0,114 37,209 111,286 80,82 184,123 312,123 127,0 230,-41 310,-123 74,-76 112,-169 112,-280 0,-121 -38,-219 -112,-293 -80,-80 -184,-121 -311,-122zm1276 518l0 393c0,23 5,40 16,53 10,12 28,22 54,30l0 31 -435 0 0 -31c26,-7 44,-17 54,-29 11,-12 16,-30 16,-53l0 -1006c0,-23 -5,-40 -15,-52 -11,-12 -29,-22 -55,-30l0 -31 809 0c104,0 184,5 240,15 55,11 104,30 147,58 89,58 133,153 133,284 0,99 -27,177 -82,233 -54,56 -143,97 -265,122l235 325c43,60 77,101 102,122 26,22 55,36 87,42l0 31 -519 0 0 -31c38,-11 57,-27 57,-50 0,-16 -11,-41 -35,-73l-248 -353 -296 0zm0 -223l446 0c68,0 118,-7 150,-22 46,-20 69,-59 69,-118 0,-52 -16,-88 -48,-108 -32,-21 -89,-31 -171,-31l-446 0 0 279zm1551 205l0 302 780 0c23,0 40,-5 52,-15 12,-10 22,-28 29,-55l32 0 0 363 -32 0c-7,-26 -16,-44 -28,-54 -13,-11 -30,-16 -53,-16l-1145 0 0 -31c26,-7 44,-17 54,-29 11,-12 16,-30 16,-53l0 -1006c0,-23 -5,-40 -15,-52 -10,-12 -28,-22 -55,-30l0 -31 1112 0c24,0 41,-6 53,-16 13,-10 22,-28 30,-54l29 0 0 363 -29 0c-8,-27 -17,-45 -29,-55 -13,-10 -30,-15 -54,-15l-747 0 0 270 463 0c23,0 41,-5 53,-15 12,-10 22,-28 30,-55l29 0 0 354 -29 0c-7,-26 -17,-44 -29,-54 -13,-11 -30,-16 -54,-16l-463 0z"/>
  <g style="clip-path:url(#id5)">
   <g id="_2892767186000">
    <polygon id="1" class="fil1" points="18151,14697 16074,15971 15270,16970 13996,18009 16230,16872 16603,16069 18582,15049 "/>
    <polygon class="fil1" points="20869,14776 18792,16049 17988,17049 16714,18088 18949,16951 19321,16147 21300,15128 "/>
   </g>
  </g>
  <g style="clip-path:url(#id6)">
   <g id="_2892767186000">
    <polygon class="fil1" points="18151,14697 16074,15971 15270,16970 13996,18009 16230,16872 16603,16069 18582,15049 "/>
    <polygon class="fil1" points="20869,14776 18792,16049 17988,17049 16714,18088 18949,16951 19321,16147 21300,15128 "/>
   </g>
  </g>
  <g style="clip-path:url(#id7)">
   <g id="_2892767186000">
    <polygon class="fil1" points="18151,14697 16074,15971 15270,16970 13996,18009 16230,16872 16603,16069 18582,15049 "/>
    <polygon class="fil1" points="20869,14776 18792,16049 17988,17049 16714,18088 18949,16951 19321,16147 21300,15128 "/>
   </g>
  </g>
  <g style="clip-path:url(#id8)">
   <g id="_2892767186000">
    <polygon class="fil1" points="18151,14697 16074,15971 15270,16970 13996,18009 16230,16872 16603,16069 18582,15049 "/>
    <polygon class="fil1" points="20869,14776 18792,16049 17988,17049 16714,18088 18949,16951 19321,16147 21300,15128 "/>
   </g>
  </g>
  <g style="clip-path:url(#id9)">
   <g id="_2892767186000">
    <polygon class="fil1" points="18151,14697 16074,15971 15270,16970 13996,18009 16230,16872 16603,16069 18582,15049 "/>
    <polygon class="fil1" points="20869,14776 18792,16049 17988,17049 16714,18088 18949,16951 19321,16147 21300,15128 "/>
   </g>
  </g>
  <g style="clip-path:url(#id10)">
   <g id="_2892767186000">
    <polygon class="fil1" points="18151,14697 16074,15971 15270,16970 13996,18009 16230,16872 16603,16069 18582,15049 "/>
    <polygon class="fil1" points="20869,14776 18792,16049 17988,17049 16714,18088 18949,16951 19321,16147 21300,15128 "/>
   </g>
  </g>
  <g style="clip-path:url(#id11)">
   <g id="_2892767186000">
    <polygon class="fil1" points="18151,14697 16074,15971 15270,16970 13996,18009 16230,16872 16603,16069 18582,15049 "/>
    <polygon class="fil1" points="20869,14776 18792,16049 17988,17049 16714,18088 18949,16951 19321,16147 21300,15128 "/>
   </g>
  </g>
  <g style="clip-path:url(#id12)">
   <g id="_2892767186000">
    <polygon class="fil1" points="18151,14697 16074,15971 15270,16970 13996,18009 16230,16872 16603,16069 18582,15049 "/>
    <polygon class="fil1" points="20869,14776 18792,16049 17988,17049 16714,18088 18949,16951 19321,16147 21300,15128 "/>
   </g>
  </g>
  <g style="clip-path:url(#id13)">
   <g id="_2892767186000">
    <polygon class="fil1" points="18151,14697 16074,15971 15270,16970 13996,18009 16230,16872 16603,16069 18582,15049 "/>
    <polygon class="fil1" points="20869,14776 18792,16049 17988,17049 16714,18088 18949,16951 19321,16147 21300,15128 "/>
   </g>
  </g>
  <g style="clip-path:url(#id14)">
   <g id="_2892767186000">
    <polygon class="fil1" points="18151,14697 16074,15971 15270,16970 13996,18009 16230,16872 16603,16069 18582,15049 "/>
    <polygon class="fil1" points="20869,14776 18792,16049 17988,17049 16714,18088 18949,16951 19321,16147 21300,15128 "/>
   </g>
  </g>
  <g style="clip-path:url(#id15)">
   <g id="_2892767186000">
    <polygon class="fil1" points="18151,14697 16074,15971 15270,16970 13996,18009 16230,16872 16603,16069 18582,15049 "/>
    <polygon class="fil1" points="20869,14776 18792,16049 17988,17049 16714,18088 18949,16951 19321,16147 21300,15128 "/>
   </g>
  </g>
  <g style="clip-path:url(#id16)">
   <g id="_2892767186000">
    <polygon class="fil1" points="18151,14697 16074,15971 15270,16970 13996,18009 16230,16872 16603,16069 18582,15049 "/>
    <polygon class="fil1" points="20869,14776 18792,16049 17988,17049 16714,18088 18949,16951 19321,16147 21300,15128 "/>
   </g>
  </g>
  <g style="clip-path:url(#id17)">
   <g id="_2892767186000">
    <polygon class="fil1" points="18151,14697 16074,15971 15270,16970 13996,18009 16230,16872 16603,16069 18582,15049 "/>
    <polygon class="fil1" points="20869,14776 18792,16049 17988,17049 16714,18088 18949,16951 19321,16147 21300,15128 "/>
   </g>
  </g>
  <path class="fil1" d="M5582 17294c0,0 267,1366 -591,1964 -859,597 1568,5749 591,-1964z"/>
  <path class="fil1" d="M5614 14414l-203 332c0,0 -325,650 235,642 560,-8 227,-577 227,-577l-259 -397z"/>
  <path class="fil1" d="M6845 14793l-203 333c0,0 -325,649 235,641 560,-8 228,-576 228,-576l-260 -398z"/>
  <path class="fil1" d="M6323 14085l-203 333c0,0 -325,650 235,642 560,-9 228,-577 228,-577l-260 -398z"/>
 </g>
</svg>
